<svg width="18" height="18" viewBox="0 0 18 18" fill="none" xmlns="http://www.w3.org/2000/svg">
<path d="M10.9063 7.22222H15.1965C16.5355 7.22222 17.4063 8.613 16.8075 9.79505L13.6555 16.0173C13.3504 16.6196 12.7268 17 12.0445 17H8.4263C8.27903 17 8.13232 16.9822 7.98946 16.9469L4.60228 16.1111M10.9063 7.22222V2.77778C10.9063 1.79594 10.0999 1 9.10514 1H9.01915C8.56927 1 8.20457 1.35997 8.20457 1.80402C8.20457 2.43896 8.01415 3.05969 7.65733 3.58799L4.60228 8.11111V16.1111M10.9063 7.22222H9.10514M4.60228 16.1111H2.80114C1.8064 16.1111 1 15.3152 1 14.3333V9C1 8.01816 1.8064 7.22222 2.80114 7.22222H5.05257" stroke="#1B2636" stroke-width="1.2" stroke-linecap="round" stroke-linejoin="round"/>
</svg>
