<svg xmlns="http://www.w3.org/2000/svg">
    <symbol id="loans" viewBox="0 0 26 34">
		<path d="M7.31919 2.0613V1.4613C7.09442 1.4613 6.88851 1.58692 6.78567 1.78678C6.68284 1.98664 6.70033 2.22722 6.831 2.4101L7.31919 2.0613ZM10.1596 1V0.4V1ZM18.8086 2.0613L19.2899 2.41956C19.4253 2.23757 19.4465 1.99473 19.3447 1.792C19.2429 1.58926 19.0354 1.4613 18.8086 1.4613V2.0613ZM15.9681 1V0.4V1ZM21.5532 13.0603L21.8519 12.54L21.5532 13.0603ZM4.44681 13.0603L4.74547 13.5807L4.44681 13.0603ZM10.1543 9.53344V8.93344C10.0399 8.93344 9.92792 8.96614 9.83149 9.0277L10.1543 9.53344ZM16.1543 9.53344L16.4962 9.04034C16.3958 8.97073 16.2765 8.93344 16.1543 8.93344V9.53344ZM9.79173 24.1603C9.5489 24.3858 9.53484 24.7654 9.76032 25.0083C9.98581 25.2511 10.3654 25.2652 10.6083 25.0397L9.79173 24.1603ZM16.2083 19.8397C16.4511 19.6142 16.4652 19.2346 16.2397 18.9917C16.0142 18.7489 15.6346 18.7348 15.3917 18.9603L16.2083 19.8397ZM10.8597 5.98452L7.80738 1.71249L6.831 2.4101L9.88328 6.68213L10.8597 5.98452ZM7.31919 2.6613C8.25367 2.6613 8.84219 2.32614 9.2871 2.03024C9.75572 1.71858 9.90589 1.6 10.1596 1.6V0.4C9.45589 0.4 8.95181 0.812073 8.62256 1.03105C8.26959 1.2658 7.91662 1.4613 7.31919 1.4613V2.6613ZM10.1596 1.6C10.5687 1.6 10.8455 1.77623 11.2052 2.05386C11.5197 2.29656 12.0329 2.75778 12.7447 2.75778V1.55778C12.531 1.55778 12.374 1.4401 11.9385 1.10392C11.5482 0.802662 10.9952 0.4 10.1596 0.4V1.6ZM16.1099 6.69158L19.2899 2.41956L18.3273 1.70304L15.1473 5.97506L16.1099 6.69158ZM18.8086 1.4613C18.2111 1.4613 17.8581 1.2658 17.5052 1.03105C17.1759 0.812073 16.6718 0.4 15.9681 0.4V1.6C16.2219 1.6 16.372 1.71858 16.8406 2.03024C17.2855 2.32614 17.8741 2.6613 18.8086 2.6613V1.4613ZM15.9681 0.4C15.1325 0.4 14.5796 0.802662 14.1893 1.10392C13.7537 1.4401 13.5967 1.55778 13.383 1.55778V2.75778C14.0948 2.75778 14.6081 2.29656 14.9225 2.05386C15.2822 1.77623 15.5591 1.6 15.9681 1.6V0.4ZM12.7447 2.75778H13.383V1.55778H12.7447V2.75778ZM24.4 18.0943V29.0178H25.6V18.0943H24.4ZM21.0747 32.4H4.92533V33.6H21.0747V32.4ZM1.6 29.0178V18.0943H0.4V29.0178H1.6ZM4.74547 13.5807C5.66106 13.0552 7.09721 12.1676 8.29715 11.4162C8.89871 11.0395 9.44356 10.6953 9.838 10.4454C10.0352 10.3204 10.1949 10.2189 10.3054 10.1486C10.3606 10.1135 10.4035 10.0862 10.4326 10.0676C10.4472 10.0583 10.4583 10.0512 10.4658 10.0465C10.4695 10.0441 10.4723 10.0423 10.4743 10.041C10.4752 10.0404 10.4759 10.04 10.4764 10.0397C10.4767 10.0395 10.4768 10.0394 10.477 10.0393C10.477 10.0393 10.4771 10.0392 10.4771 10.0392C10.4772 10.0392 10.4772 10.0392 10.1543 9.53344C9.83149 9.0277 9.83148 9.0277 9.83146 9.02772C9.83143 9.02774 9.83139 9.02776 9.83134 9.0278C9.83122 9.02787 9.83105 9.02798 9.83082 9.02812C9.83036 9.02842 9.82967 9.02886 9.82874 9.02945C9.82689 9.03063 9.82411 9.03241 9.82042 9.03476C9.81305 9.03946 9.80205 9.04648 9.78761 9.05568C9.75874 9.07408 9.7161 9.10124 9.66116 9.1362C9.55128 9.20612 9.39222 9.3072 9.19566 9.43177C8.8025 9.68092 8.25953 10.0239 7.66025 10.3992C6.45851 11.1517 5.0409 12.0276 4.14814 12.54L4.74547 13.5807ZM16.1543 9.53344C15.8125 10.0265 15.8125 10.0266 15.8126 10.0266C15.8126 10.0266 15.8126 10.0266 15.8127 10.0267C15.8128 10.0268 15.813 10.0269 15.8132 10.0271C15.8137 10.0274 15.8144 10.0278 15.8153 10.0285C15.8171 10.0297 15.8197 10.0315 15.8232 10.0339C15.8301 10.0388 15.8404 10.0459 15.8539 10.0552C15.8809 10.0738 15.9206 10.1013 15.9717 10.1365C16.0739 10.2069 16.2218 10.3086 16.4049 10.4338C16.7709 10.6842 17.278 11.0289 17.8419 11.4063C18.9646 12.1577 20.3302 13.0502 21.2545 13.5807L21.8519 12.54C20.9678 12.0326 19.634 11.1617 18.5093 10.4091C17.9496 10.0345 17.446 9.69208 17.0823 9.44333C16.9005 9.31898 16.7538 9.2181 16.6526 9.14836C16.602 9.11349 16.5628 9.08641 16.5363 9.06809C16.523 9.05892 16.5129 9.05195 16.5062 9.04729C16.5028 9.04495 16.5003 9.0432 16.4986 9.04203C16.4978 9.04145 16.4972 9.04102 16.4967 9.04074C16.4965 9.04059 16.4964 9.04049 16.4963 9.04042C16.4962 9.04039 16.4962 9.04037 16.4962 9.04035C16.4962 9.04034 16.4962 9.04034 16.1543 9.53344ZM4.92533 32.4C3.09691 32.4 1.6 30.8939 1.6 29.0178H0.4C0.4 31.5403 2.41795 33.6 4.92533 33.6V32.4ZM24.4 29.0178C24.4 30.8939 22.9031 32.4 21.0747 32.4V33.6C23.582 33.6 25.6 31.5403 25.6 29.0178H24.4ZM25.6 18.0943C25.6 15.6707 23.7597 13.6349 21.8519 12.54L21.2545 13.5807C22.9803 14.5712 24.4 16.2826 24.4 18.0943H25.6ZM1.6 18.0943C1.6 16.2826 3.01967 14.5712 4.74547 13.5807L4.14814 12.54C2.24031 13.6349 0.4 15.6707 0.4 18.0943H1.6ZM10.3715 6.93332H15.6286V5.73332H10.3715V6.93332ZM15.6286 8.93332H10.3715V10.1333H15.6286V8.93332ZM10.3715 8.93332C9.83992 8.93332 9.39433 8.49377 9.39433 7.93332H8.19433C8.19433 9.14018 9.16096 10.1333 10.3715 10.1333V8.93332ZM16.6058 7.93332C16.6058 8.49377 16.1602 8.93332 15.6286 8.93332V10.1333C16.8391 10.1333 17.8058 9.14018 17.8058 7.93332H16.6058ZM15.6286 6.93332C16.1602 6.93332 16.6058 7.37287 16.6058 7.93332H17.8058C17.8058 6.72646 16.8391 5.73332 15.6286 5.73332V6.93332ZM10.3715 5.73332C9.16096 5.73332 8.19433 6.72646 8.19433 7.93332H9.39433C9.39433 7.37287 9.83992 6.93332 10.3715 6.93332V5.73332ZM19.5489 21.9367C19.5489 25.5883 16.6125 28.5407 13 28.5407V29.7407C17.2839 29.7407 20.7489 26.2424 20.7489 21.9367H19.5489ZM13 28.5407C9.38745 28.5407 6.45106 25.5883 6.45106 21.9367H5.25106C5.25106 26.2424 8.71604 29.7407 13 29.7407V28.5407ZM6.45106 21.9367C6.45106 18.2851 9.38745 15.3327 13 15.3327V14.1327C8.71604 14.1327 5.25106 17.631 5.25106 21.9367H6.45106ZM13 15.3327C16.6125 15.3327 19.5489 18.2851 19.5489 21.9367H20.7489C20.7489 17.631 17.2839 14.1327 13 14.1327V15.3327ZM15.9107 24.1879C15.9107 24.5714 15.6034 24.8743 15.2341 24.8743V26.0743C16.2748 26.0743 17.1107 25.2254 17.1107 24.1879H15.9107ZM15.2341 24.8743C14.8647 24.8743 14.5575 24.5714 14.5575 24.1879H13.3575C13.3575 25.2254 14.1933 26.0743 15.2341 26.0743V24.8743ZM14.5575 24.1879C14.5575 23.8036 14.8628 23.5015 15.2341 23.5015V22.3015C14.1898 22.3015 13.3575 23.1512 13.3575 24.1879H14.5575ZM15.2341 23.5015C15.6053 23.5015 15.9107 23.8036 15.9107 24.1879H17.1107C17.1107 23.1512 16.2784 22.3015 15.2341 22.3015V23.5015ZM11.5702 19.8139C11.5702 20.1974 11.2629 20.5004 10.8936 20.5004V21.7004C11.9343 21.7004 12.7702 20.8514 12.7702 19.8139H11.5702ZM10.8936 20.5004C10.5243 20.5004 10.217 20.1974 10.217 19.8139H9.01699C9.01699 20.8514 9.85284 21.7004 10.8936 21.7004V20.5004ZM10.217 19.8139C10.217 19.4305 10.5242 19.1275 10.8936 19.1275V17.9275C9.85284 17.9275 9.01699 18.7764 9.01699 19.8139H10.217ZM10.8936 19.1275C11.2629 19.1275 11.5702 19.4305 11.5702 19.8139H12.7702C12.7702 18.7764 11.9343 17.9275 10.8936 17.9275V19.1275ZM10.6083 25.0397L16.2083 19.8397L15.3917 18.9603L9.79173 24.1603L10.6083 25.0397ZM10.1543 10.1334H16.1543V8.93344H10.1543V10.1334Z"></path>
    </symbol>
    <symbol id="debit" viewBox="0 0 29.5 26">
        <path d="M26.2 4.6h-2.7l-2-3.3C20.8 0 19.2-.4 18 .4l-7.1 4.2H3.3C1.5 4.6 0 6.1 0 7.9v14.8C0 24.5 1.5 26 3.3 26h22.9c1.8 0 3.3-1.5 3.3-3.3V7.9c0-1.8-1.5-3.3-3.3-3.3zm-7.8-2.9c.7-.4 1.7-.2 2.1.5l4.9 8.2c.4.7.2 1.7-.5 2.1l-10.2 6H7.9L4 11.9c-.4-.7-.2-1.7.5-2.1l13.9-8.1zM1.3 7.9c0-1.1.9-2 2-2h5.3l-5 3c-1.2.7-1.6 2.2-.9 3.4l3.7 6.2H1.3V7.9zm26.9 14.8c0 1.1-.9 2-2 2H3.3c-1.1 0-2-.9-2-2v-2.8h26.9v2.8zm0-4.1h-11l8.6-5.1c1.2-.7 1.6-2.3.9-3.5l-2.5-4.2h1.9c1.1 0 2 .9 2 2v10.8z"></path><path d="M8.2 14.7h-.3c-.3-.1-.6-.3-.8-.6l-1-1.7c-.4-.6-.1-1.4.5-1.8l3-1.8c.3-.2.7-.2 1-.1.3.1.6.3.8.6l1 1.7c.4.6.1 1.4-.5 1.8l-3 1.8c-.2 0-.5.1-.7.1zm-1-3.1 1 1.8 3-1.8-1-1.8-3 1.8z"></path>
    </symbol>
    <symbol id="credits" viewBox="0 0 30 28">
        <path d="M10.49 26.4a.6.6 0 0 0 0 1.2v-1.2ZM8.878 2.472l.6.023-.6-.023Zm6.895 8.361.39-.455-.39.455ZM9.29 5.263l-.391.455.39-.455Zm-1.024 0 .391.455-.391-.455Zm-6.483 5.57-.391-.455.39.455Zm1.62 12.234h-.6a.6.6 0 0 0 .6.6v-.6Zm10.749 0v.6a.6.6 0 0 0 .6-.6h-.6Zm6.552-18.243v-.6a.6.6 0 0 0-.6.6h.6Zm-1.815 4.83a.6.6 0 1 0 0 1.2v-1.2Zm1.215 5.875a.6.6 0 1 0 1.2 0h-1.2Zm3.192-2.037a.6.6 0 0 0 0-1.2v1.2Zm-4.407-1.2a.6.6 0 0 0 0 1.2v-1.2ZM10.433 1.6h17.011V.4H10.433v1.2Zm17.967.93v22.94h1.2V2.53h-1.2Zm-.956 23.87H10.49v1.2h16.954v-1.2ZM9.377 5.13l.1-2.635-1.198-.046-.1 2.636 1.198.045ZM28.4 25.47c0 .504-.418.93-.956.93v1.2c1.181 0 2.156-.944 2.156-2.13h-1.2ZM27.444 1.6c.538 0 .956.426.956.93h1.2c0-1.186-.975-2.13-2.156-2.13v1.2ZM10.433.4c-1.15 0-2.11.896-2.154 2.05l1.199.045a.944.944 0 0 1 .955-.895V.4Zm5.73 9.978-6.482-5.57-.782.91 6.483 5.57.782-.91Zm-8.288-5.57-6.483 5.57.782.91 6.483-5.57-.782-.91Zm-5.58 7.966h1.109v-1.2h-1.11v1.2Zm11.857 0h1.11v-1.2h-1.11v1.2Zm-11.348-.6v10.893h1.2V12.174h-1.2Zm10.748 0v10.893h1.2V12.174h-1.2Zm-10.148.6H6.09v-1.2H3.404v1.2Zm8.06 0h2.688v-1.2h-2.687v1.2Zm0 10.893h2.688v-1.2h-2.687v1.2Zm-8.06 0H6.09v-1.2H3.404v1.2ZM5.49 12.174v10.893h1.2V12.174h-1.2Zm5.374 0v10.893h1.2V12.174h-1.2ZM9.68 4.808a1.388 1.388 0 0 0-1.806 0l.782.91a.188.188 0 0 1 .242 0l.782-.91Zm5.7 6.48c.039.033.051.062.056.084a.174.174 0 0 1-.068.171.176.176 0 0 1-.108.03v1.2c1.253 0 1.883-1.553.903-2.395l-.782.91Zm-13.99-.91c-.98.842-.35 2.396.903 2.396v-1.2a.176.176 0 0 1-.108-.031.175.175 0 0 1-.068-.171.153.153 0 0 1 .056-.084l-.782-.91ZM1.39 23.776h14.778v-1.2H1.389v1.2ZM16.167 26.4H1.389v1.2h14.778v-1.2Zm-.212.218c0-.13.105-.218.212-.218v1.2c.536 0 .988-.43.988-.982h-1.2Zm.212-2.841a.214.214 0 0 1-.212-.218h1.2a.986.986 0 0 0-.988-.983v1.2ZM1.389 26.4c.107 0 .211.088.211.218H.4c0 .552.452.982.989.982v-1.2Zm0-3.823a.986.986 0 0 0-.989.982h1.2c0 .13-.104.217-.211.217v-1.2ZM20.704 5.424h2.423v-1.2h-2.423v1.2Zm.6 4.83v-5.43h-1.2v5.43h1.2Zm1.823-.6h-2.423v1.2h2.423v-1.2Zm-2.423 0h-1.815v1.2h1.815v-1.2Zm.6 5.875v-2.637h-1.2v2.637h1.2Zm0-2.637v-2.638h-1.2v2.638h1.2Zm-.6.6h2.592v-1.2h-2.592v1.2Zm0-1.2h-1.815v1.2h1.815v-1.2Zm4.585-4.753c0 1.158-.958 2.115-2.162 2.115v1.2c1.847 0 3.362-1.475 3.362-3.315h-1.2Zm-2.162-2.115c1.204 0 2.162.956 2.162 2.115h1.2c0-1.84-1.515-3.315-3.362-3.315v1.2Zm-17.036 7.35h5.374v-1.2H6.09v1.2Zm0 10.893h5.374v-1.2H6.09v1.2Zm9.864-.108v3.059h1.2v-3.059h-1.2ZM1.6 26.618v-3.06H.4v3.06h1.2Z" />
    </symbol>
    <symbol id="banks" viewBox="0 0 24 26">
        <path d="M21.706 8.579v.5h.5v-.5h-.5Zm-15.53 2.526v-.5a.5.5 0 0 0-.5.5h.5Zm-2.588 0h.5a.5.5 0 0 0-.5-.5v.5Zm0 8.842v.5a.5.5 0 0 0 .5-.5h-.5Zm-1.294 0v-.5a.5.5 0 0 0-.5.5h.5Zm0 2.527v.5a.5.5 0 0 0 .5-.5h-.5Zm5.177 0h-.5a.5.5 0 0 0 .5.5v-.5Zm0-2.527h.5a.5.5 0 0 0-.5-.5v.5Zm-1.295 0h-.5a.5.5 0 0 0 .5.5v-.5Zm14.236-8.842v-.5a.5.5 0 0 0-.5.5h.5Zm-2.588 0h.5a.5.5 0 0 0-.5-.5v.5Zm0 8.842v.5a.5.5 0 0 0 .5-.5h-.5Zm-1.295 0v-.5a.5.5 0 0 0-.5.5h.5Zm0 2.527v.5a.5.5 0 0 0 .5-.5h-.5Zm5.177 0h-.5a.5.5 0 0 0 .5.5v-.5Zm0-2.527h.5a.5.5 0 0 0-.5-.5v.5Zm-1.294 0h-.5a.5.5 0 0 0 .5.5v-.5Zm.983-15.104.19-.463-.19.463Zm-9.584-3.766L12 1.54l-.19-.463Zm.378 0L12 1.54l.19-.463ZM2.605 4.843l-.19-.463.19.463Zm19.1 3.236H2.296v1h19.41v-1ZM2.796 5.306 12 1.54l-.379-.925L2.416 4.38l.378.926ZM12 1.54l9.206 3.766.378-.926L12.38.615 12 1.54ZM2.794 8.58V6.143h-1v2.436h1Zm0-2.436v-.837h-1v.837h1Zm18.412-.837v.837h1v-.837h-1Zm0 .837v2.436h1V6.143h-1Zm-18.912.5h19.412v-1H2.294v1Zm1.294 12.804H2.294v1h1.294v-1Zm-1.794.5v2.527h1v-2.527h-1Zm6.177 2.527v-2.527h-1v2.527h1Zm-.5-3.027H6.176v1h1.295v-1Zm10.352 0H16.53v1h1.294v-1Zm-1.794.5v2.527h1v-2.527h-1Zm6.177 2.527v-2.527h-1v2.527h1Zm-.5-3.027h-1.294v1h1.294v-1Zm0 3.527h.794v-1h-.794v1Zm.794 0V24.5h1v-1.526h-1Zm0 1.526h-21v1h21v-1Zm-21 0v-1.526h-1V24.5h1Zm0-1.526h.794v-1H1.5v1Zm2.088-12.369H1.5v1h2.088v-1Zm-2.088 0V9.08h-1v1.526h1Zm21-1.526v1.526h1V9.08h-1Zm0 1.526h-2.088v1H22.5v-1ZM1.5 9.08h.794v-1H1.5v1Zm.794 0H22.5v-1H2.294v1Zm3.382 2.026v8.842h1v-8.842h-1Zm-1.588 8.842v-8.842h-1v8.842h1Zm15.824-8.842v8.842h1v-8.842h-1Zm-1.588 8.842v-8.842h-1v8.842h1ZM7.47 22.974H12v-1H7.47v1Zm4.529 0h4.53v-1H12v1ZM6.176 11.605H12v-1H6.176v1Zm5.824 0h5.823v-1H12v1Zm.5 10.869V11.105h-1v11.369h1Zm10-11.869v1a1 1 0 0 0 1-1h-1Zm1-1.526a1 1 0 0 0-1-1v1h1Zm-22 0v-1a1 1 0 0 0-1 1h1Zm0 1.526h-1a1 1 0 0 0 1 1v-1Zm0 13.895h-1a1 1 0 0 0 1 1v-1ZM21.206 5.306h1a1 1 0 0 0-.622-.926l-.378.926ZM22.5 22.974h1a1 1 0 0 0-1-1v1Zm0 1.526v1a1 1 0 0 0 1-1h-1Zm-21-1.526v-1a1 1 0 0 0-1 1h1ZM12 1.54l.379-.925a1 1 0 0 0-.758 0L12 1.54ZM2.416 4.38a1 1 0 0 0-.622.926h1l-.378-.926Z"></path>
    </symbol>
    <symbol id="cards" viewBox="0 0 30.5 27">
        <path d="M9.9 22.7c0-.4-.3-.7-.7-.7v1.3c.4 0 .7-.3.7-.6zM3.9 22h5.3v1.3H3.9z"/>
        <path d="M3.9 23.3V22c-.4 0-.7.3-.7.7.1.3.4.6.7.6z"/>
        <path d="M30.4 15.3 28.3 2.7c-.1-.9-.6-1.6-1.3-2.1-.7-.5-1.6-.7-2.4-.6L4.7 3.4c-1.8.3-3 2-2.7 3.8l.1.7C.9 8.4 0 9.6 0 11v12.7C0 25.5 1.5 27 3.3 27h20.1c1.8 0 3.3-1.5 3.3-3.3v-4.5l1.2-.2c.9-.1 1.6-.6 2.1-1.3.4-.7.6-1.6.4-2.4zm-5.1 8.4c0 1.1-.9 2-2 2h-20c-1.1 0-2-.9-2-2v-6.5h24v6.5zm0-7.8h-24v-2.8h24v2.8zm0-4.1h-24V11c0-1.1.9-2 2-2h20.1c1.1 0 2 .9 2 2v.8zm3.5 5.1c-.3.4-.8.7-1.3.8l-1 .2V11c0-1.8-1.5-3.3-3.3-3.3H3.5L3.4 7c-.2-1.1.5-2.1 1.6-2.3l19.8-3.4c1.1-.2 2.1.5 2.3 1.6l2.1 12.5c0 .6-.1 1.1-.4 1.5z"/>
    </symbol>
    <symbol id="circledots" viewBox="0 0 22 22">
        <path d="M11 22C4.9 22 0 17.1 0 11S4.9 0 11 0s11 4.9 11 11-4.9 11-11 11zm0-20.8c-5.4 0-9.8 4.4-9.8 9.8s4.4 9.8 9.8 9.8 9.8-4.4 9.8-9.8-4.4-9.8-9.8-9.8z"></path>
        <circle cx="6.7" cy="11" r="1.2"></circle>
        <circle cx="11" cy="11" r="1.2"></circle>
        <circle cx="15.3" cy="11" r="1.2"></circle>
    </symbol>
    <symbol id="arrow" viewBox="0 0 12 6">
        <path d="M6 6h-.4C4.4 5.8 3.5 5 2 3.5L.3 1.7C-.1 1.3-.1.7.3.3c.4-.4 1-.4 1.4 0l1.7 1.8C4.6 3.2 5.3 3.9 5.8 4h.4c.5-.1 1.2-.8 2.4-1.9L10.3.3c.4-.4 1-.4 1.4 0 .4.4.4 1 0 1.4L10 3.5C8.5 5 7.6 5.8 6.4 6H6Z"></path>
    </symbol>
    <symbol id="news" viewBox="0 0 17 17">
        <path d="M14.1 17H1.5C.7 17 0 16.3 0 15.5v-14C0 .7.7 0 1.5 0h9.8c.8 0 1.5.7 1.5 1.5v.9h2.7c.8 0 1.5.6 1.5 1.5v9.8c0 1.1-.6 3.3-2.9 3.3zM12.8 3.4v10.3s0 2.3 1.4 2.3c1.8 0 1.9-2.1 1.9-2.3V3.9c0-.3-.2-.5-.5-.5h-2.8zM1.5 1c-.3 0-.5.2-.5.5v14c0 .3.2.5.5.5h10.9c-.5-.7-.6-1.7-.6-2.3V1.5c0-.3-.2-.5-.5-.5H1.5zm8.9 13.2H2.9c-.3 0-.5-.2-.5-.5s.2-.5.5-.5h7.5c.3 0 .5.2.5.5s-.2.5-.5.5zm0-2.4H2.9c-.3 0-.5-.2-.5-.5s.2-.5.5-.5h7.5c.3 0 .5.2.5.5s-.2.5-.5.5zm0-2.8H2.9c-.3 0-.5-.2-.5-.5s.2-.5.5-.5h7.5c.3 0 .5.2.5.5s-.2.5-.5.5zm0-2.8H8c-.2 0-.5-.2-.5-.5s.3-.5.5-.5h2.4c.3 0 .5.2.5.5s-.2.5-.5.5zm-4.7 0H2.9c-.3 0-.5-.2-.5-.5V2.9c0-.3.2-.5.5-.5h2.8c.3 0 .5.2.5.5v2.8c0 .3-.2.5-.5.5zm-2.3-1h1.8V3.4H3.4v1.8zm7-1.4H8c-.3 0-.5-.2-.5-.5s.3-.5.5-.5h2.4c.3 0 .5.2.5.5s-.2.5-.5.5z"></path>
    </symbol>
    <symbol id="calc" viewBox="0 0 17 17">
        <path d="M15.5 17h-14C.7 17 0 16.3 0 15.5v-14C0 .7.7 0 1.5 0h14c.8 0 1.5.7 1.5 1.5v14c0 .8-.7 1.5-1.5 1.5zM9 16h6.5c.3 0 .5-.2.5-.5V9H9v7zM1 9v6.5c0 .3.2.5.5.5H8V9H1zm8-1h7V1.5c0-.3-.2-.5-.5-.5H9v7zM1 8h7V1H1.5c-.3 0-.5.2-.5.5V8zm5 6.5c-.1 0-.3 0-.4-.1l-1.1-1.1-1.1 1.1c-.2.2-.5.2-.7 0s-.2-.5 0-.7l1.1-1.1-1.1-1.1c-.2-.2-.2-.5 0-.7s.5-.2.7 0l1.1 1.1 1.1-1.1c.2-.2.5-.2.7 0s.2.5 0 .7l-1.1 1.1 1.1 1.1c.2.2.2.5 0 .7 0 .1-.2.1-.3.1zm8-.5h-3c-.3 0-.5-.2-.5-.5s.2-.5.5-.5h3c.3 0 .5.2.5.5s-.2.5-.5.5zm0-2h-3c-.3 0-.5-.2-.5-.5s.2-.5.5-.5h3c.3 0 .5.2.5.5s-.2.5-.5.5zM4.5 6.5c-.3 0-.5-.2-.5-.5V5H3c-.3 0-.5-.2-.5-.5S2.7 4 3 4h1V3c0-.3.2-.5.5-.5s.5.2.5.5v1h1c.3 0 .5.2.5.5S6.3 5 6 5H5v1c0 .3-.2.5-.5.5zM14 5h-3c-.3 0-.5-.2-.5-.5s.2-.5.5-.5h3c.3 0 .5.2.5.5s-.2.5-.5.5z"></path>
    </symbol>
    <symbol id="arrowright" viewBox="0 0 18 12">
        <path d="M17 6.5c.2761 0 .5-.22386.5-.5s-.2239-.5-.5-.5v1Zm-16-1c-.276142 0-.5.22386-.5.5s.223858.5.5.5v-1Zm3.64803 5.8551c.19613.1944.51271.193.7071-.0031.19439-.1962.19297-.5127-.00316-.7071l-.70394.7102Zm-1.411-2.10241.35197-.35513-.35197.35513Zm0-6.50538-.35197-.35513.35197.35513Zm2.11494-1.39218c.19613-.19439.19755-.510971.00316-.707102-.19439-.196132-.51097-.197544-.7071-.003155l.70394.710257Zm-4.33208 4.9582-.495987.06322.495987-.06322Zm0-.62666-.495987-.06322.495987.06322ZM17 5.5H1v1h16v-1ZM5.35197 10.6449 3.589 8.89756l-.70394.71026 1.76297 1.74728.70394-.7102ZM3.589 3.10244l1.76297-1.74731-.70394-.710257L2.88506 2.39218l.70394.71026Zm0 5.79512c-.71131-.70499-1.21426-1.20454-1.55733-1.63172-.33674-.4193-.47812-.72014-.51579-1.01573l-.991977.12644c.070563.55361.334786 1.02573.728077 1.51545.38695.48183.93846 1.02737 1.63308 1.71582l.70394-.71026Zm-.70394-6.50538c-.69462.68845-1.24613 1.23399-1.63308 1.71582-.393291.48972-.657513.96184-.728077 1.51545l.991977.12644c.03767-.29559.17905-.59643.51579-1.01573.34307-.42718.84602-.92672 1.55733-1.63172l-.70394-.71026ZM1.51588 6.25011c-.02117-.16608-.02117-.33414 0-.50022l-.991977-.12644c-.031871.25004-.031871.50306 0 .7531l.991977-.12644Z" />
    </symbol>
    <symbol id="ratingStar" viewBox="0 0 17 16">
        <path d="M7.621.62a1 1 0 0 1 1.758 0l1.878 3.462a1 1 0 0 0 .73.512l3.976.595a1 1 0 0 1 .538 1.717l-2.767 2.606a1 1 0 0 0-.3.893l.62 3.697a1 1 0 0 1-1.419 1.067l-3.703-1.772a1 1 0 0 0-.864 0l-3.703 1.772a1 1 0 0 1-1.418-1.067l.62-3.697a1 1 0 0 0-.3-.893L.498 6.906a1 1 0 0 1 .538-1.717l3.975-.595a1 1 0 0 0 .731-.512L7.621.62Z" fill="#F7C206"></path>
    </symbol>
    <symbol id="starLine" viewBox="0 0 18 16.6">
        <path d="M4.4 16.6c-.4 0-.7-.1-1-.3-.5-.4-.8-1-.7-1.6l.6-3.7c0-.1 0-.2-.1-.3L.5 8C.1 7.6-.1 6.9.1 6.3c.2-.6.7-1.1 1.4-1.2l4-.6c.1 0 .2-.1.2-.2L7.6.8C7.8.3 8.4 0 9 0c.6 0 1.2.3 1.5.9l1.9 3.5c0 .1.1.1.2.2l4 .6c.6.1 1.2.5 1.4 1.2.2.6 0 1.3-.5 1.7l-2.8 2.6c-.1.1-.1.2-.1.3l.6 3.7c.1.6-.1 1.3-.7 1.6-.5.4-1.2.4-1.8.2L9 14.7h-.3L5 16.5c-.1 0-.3.1-.6.1zM9 1.4c-.1 0-.2 0-.3.2L6.9 5c-.3.5-.7.8-1.3.9l-4 .6c-.2 0-.2.1-.2.2s0 .2.1.3l2.8 2.6c.4.4.6 1 .5 1.5l-.6 3.7c0 .2.1.2.1.3.1 0 .2.1.3 0l3.7-1.8c.5-.2 1-.2 1.5 0l3.7 1.8c.1.1.3 0 .3 0 .1 0 .1-.1.1-.3l-.6-3.7c-.1-.6.1-1.1.5-1.5L16.5 7c.1-.1.1-.2.1-.3 0-.1-.1-.2-.2-.2l-4-.6c-.5-.1-1-.4-1.2-.9L9.3 1.6c-.1-.2-.2-.2-.3-.2z"/>
    </symbol>
    <symbol id="heartLine" viewBox="0 0 19.5 17.6">
        <path d="M17.8 1.6C16.6.5 15.1-.1 13.5 0c-1.4.1-2.8.7-3.8 1.7C8.8.7 7.4.1 6 0 4.4-.1 2.9.5 1.7 1.6c-2.3 2.5-2.3 6.3 0 8.8l3.7 3.9 2.3 2.4c1.1 1.1 2.9 1.1 4 0l2.3-2.4 3.7-3.9c2.4-2.5 2.4-6.3.1-8.8zm-1.1 7.8L13 13.3l-2.3 2.4c-.5.5-1.3.5-1.8 0l-2.3-2.4-3.8-3.9C1.1 7.5 1 4.6 2.8 2.7c.8-.8 2-1.3 3.1-1.2 1.2.1 2.2.6 3 1.5v.1l.3.3c.1.2.3.2.5.2s.4-.1.5-.2l.3-.3c.8-.9 1.8-1.5 3-1.5 1.2-.1 2.3.4 3.1 1.2 1.8 1.8 1.8 4.7.1 6.6z" />
    </symbol>
    <symbol id="commentLine" viewBox="0 0 18 17">
        <path d="M5.023 5.59c0-.344.281-.622.628-.622h6.698c.347 0 .628.278.628.621a.624.624 0 0 1-.628.621H5.65a.624.624 0 0 1-.628-.62ZM6.698 8.901c0-.343.28-.62.628-.62h3.348c.347 0 .628.277.628.62a.624.624 0 0 1-.628.622H7.326a.624.624 0 0 1-.628-.622Z" fill="#7B879D"></path><path fill-rule="evenodd" clip-rule="evenodd" d="M7.297 0h3.406c1.148 0 2.048 0 2.772.058.737.06 1.345.183 1.896.46A4.788 4.788 0 0 1 17.476 2.6c.281.545.406 1.147.466 1.876C18 5.19 18 6.082 18 7.218v1.13c0 1.282 0 2.064-.195 2.721a4.788 4.788 0 0 1-3.264 3.23c-.665.192-1.456.192-2.752.192h-.633a3.585 3.585 0 0 0-2.027.642l-.041.03-2.186 1.543c-1.26.89-2.914-.395-2.34-1.816a.291.291 0 0 0-.273-.4h-.503C1.695 14.49 0 12.816 0 10.748v-3.53c0-1.135 0-2.026.06-2.741.06-.73.184-1.331.465-1.876A4.788 4.788 0 0 1 2.628.519C3.18.24 3.788.118 4.525.059 5.25 0 6.15 0 7.297 0Zm-2.67 1.296c-.659.054-1.084.156-1.428.33a3.539 3.539 0 0 0-1.555 1.538c-.176.34-.28.76-.333 1.413-.055.659-.055 1.499-.055 2.668v3.502c0 1.382 1.132 2.502 2.53 2.502h.503c1.097 0 1.847 1.095 1.44 2.102-.11.27.204.513.443.345l2.186-1.544.048-.034a4.85 4.85 0 0 1 2.742-.87h.518c1.458 0 2.053-.006 2.521-.141A3.539 3.539 0 0 0 16.6 10.72c.138-.464.144-1.052.144-2.494v-.98c0-1.17 0-2.01-.055-2.67-.054-.651-.157-1.072-.333-1.412a3.539 3.539 0 0 0-1.555-1.538c-.344-.174-.77-.276-1.428-.33-.667-.053-1.516-.054-2.699-.054H7.326c-1.183 0-2.032 0-2.699.054Z" />
    </symbol>
    <symbol id="basket" viewBox="0 0 12.7 10.3">
        <path d="M12.2 2.3h-1.5L8.4.2c-.2-.2-.5-.2-.7 0-.2.2-.2.5 0 .7l1.5 1.5H3.6L5.1.9c.2-.2.2-.5 0-.7-.2-.2-.5-.2-.7 0L2.2 2.3H.5c-.3 0-.5.3-.5.5 0 .3.2.5.5.5h.3c.1.5.3 1.1.5 1.7l.5 2c.2.8.4 1.4.7 1.8.5.7 1.1 1.2 1.9 1.4.5.1 1 .1 1.9.1.9 0 1.4 0 1.9-.1.8-.2 1.5-.7 2-1.4.3-.4.4-.9.7-1.8l.5-2c.2-.6.4-1.2.5-1.7h.3c.3 0 .5-.2.5-.5 0-.2-.2-.5-.5-.5zm-1.7 2.5-.6 1.9c-.3.9-.4 1.2-.6 1.5-.3.5-.8.9-1.3 1-.4.1-.7.1-1.7.1s-1.3 0-1.6-.1c-.6-.2-1-.5-1.4-1l-.5-1.5-.6-1.9c-.2-.5-.3-1-.4-1.4h9.1c-.1.3-.3.8-.4 1.4z"/>
        <path d="M8 5.2v2.3c0 .3-.2.5-.5.5S7 7.8 7 7.5V5.2c0-.3.2-.5.5-.5s.5.2.5.5zM5.7 5.2v2.3c0 .3-.2.5-.5.5s-.5-.2-.5-.5V5.2c0-.3.2-.5.5-.5s.5.2.5.5z"/>
    </symbol>
    <symbol id="eye" viewBox="0 0 20.5 17.2">
        <path d="m19 10.5.5.3-.5-.3zm0-3.8-.5.3.5-.3zm.9 1.9h-.6.6zM1.5 10.5l.5-.4-.5.4zm0-3.8L1 6.4l.5.3zM.6 8.6H0h.6zm.4 2.2c.9 1.2 2.1 2.8 3.7 4.1 1.6 1.3 3.5 2.3 5.6 2.3V16c-1.7 0-3.3-.8-4.8-2S2.8 11.3 2 10.1l-1 .7zm9.3 6.4c2.1 0 4-1 5.6-2.3 1.6-1.3 2.8-2.9 3.7-4.1l-1-.7c-.8 1.2-2 2.6-3.5 3.8-1.5 1.2-3.1 2-4.8 2v1.3zm9.2-10.8c-.9-1.2-2.1-2.8-3.7-4.1C14.3 1 12.4 0 10.3 0v1.2c1.7 0 3.3.8 4.8 2s2.7 2.7 3.5 3.8l.9-.6zM10.3 0c-2.1 0-4 1-5.6 2.3C3.1 3.6 1.9 5.2 1 6.4l1 .7c.8-1.2 2-2.6 3.5-3.8 1.5-1.2 3.1-2 4.8-2V0zm9.2 10.8c.6-.8 1-1.4 1-2.2h-1.2c0 .4-.2.7-.8 1.5l1 .7zm-.9-3.7c.6.9.8 1.1.8 1.5h1.2c0-.9-.4-1.4-1-2.2l-1 .7zM2 10.1c-.6-.8-.8-1.1-.8-1.5H0c0 .9.4 1.4 1 2.2l1-.7zM1 6.4c-.6.8-1 1.3-1 2.2h1.2c0-.4.2-.7.8-1.5l-1-.7zm5.7 2.2c0 2 1.6 3.6 3.6 3.6V11C9 11 7.9 9.9 7.9 8.6H6.7zm3.6 3.6c2 0 3.6-1.6 3.6-3.6h-1.2c0 1.3-1.1 2.4-2.4 2.4v1.2zm3.6-3.6c0-2-1.6-3.6-3.6-3.6v1.2c1.3 0 2.4 1.1 2.4 2.4h1.2zM10.3 5c-2 0-3.6 1.6-3.6 3.6h1.2c0-1.3 1.1-2.4 2.4-2.4V5z"></path>
    </symbol>
    <symbol id="person" viewBox="0 0 16 21">
        <path d="M11.4 5A3.4 3.4 0 0 1 8 8.4v1.2A4.6 4.6 0 0 0 12.6 5h-1.2ZM8 8.4A3.4 3.4 0 0 1 4.6 5H3.4A4.6 4.6 0 0 0 8 9.6V8.4ZM4.6 5A3.4 3.4 0 0 1 8 1.6V.4A4.6 4.6 0 0 0 3.4 5h1.2ZM8 1.6A3.4 3.4 0 0 1 11.4 5h1.2A4.6 4.6 0 0 0 8 .4v1.2Zm-3 11h6v-1.2H5v1.2Zm6 6.8H5v1.2h6v-1.2Zm-6 0A3.4 3.4 0 0 1 1.6 16H.4A4.6 4.6 0 0 0 5 20.6v-1.2Zm9.4-3.4a3.4 3.4 0 0 1-3.4 3.4v1.2a4.6 4.6 0 0 0 4.6-4.6h-1.2ZM11 12.6a3.4 3.4 0 0 1 3.4 3.4h1.2a4.6 4.6 0 0 0-4.6-4.6v1.2Zm-6-1.2A4.6 4.6 0 0 0 .4 16h1.2A3.4 3.4 0 0 1 5 12.6v-1.2Z"></path>
    </symbol>
    <symbol id="pointer" viewBox="0 0 16 20">
        <path fill-rule="evenodd" clip-rule="evenodd" d="M8 5.332c-1.894 0-3.429 1.492-3.429 3.333 0 1.84 1.535 3.332 3.429 3.332s3.429-1.492 3.429-3.332c0-1.84-1.535-3.333-3.429-3.333ZM5.943 8.665c0-1.105.92-2 2.057-2 1.136 0 2.057.895 2.057 2 0 1.104-.92 2-2.057 2-1.136 0-2.057-.896-2.057-2Z" fill="#7B879D"/><path fill-rule="evenodd" clip-rule="evenodd" d="M8 0C3.535 0 0 3.77 0 8.317c0 1.458.745 3.175 1.683 4.786.953 1.637 2.169 3.272 3.235 4.593l.036.044c.52.646.963 1.195 1.393 1.575.47.414.986.685 1.653.685s1.184-.271 1.653-.685c.43-.38.873-.93 1.393-1.575l.036-.044c1.066-1.321 2.282-2.956 3.235-4.593C15.255 11.492 16 9.775 16 8.317 16 3.77 12.465 0 8 0ZM1.371 8.317c0-3.904 3.015-6.984 6.629-6.984 3.614 0 6.629 3.08 6.629 6.984 0 1.09-.585 2.548-1.506 4.13-.905 1.555-2.075 3.13-3.12 4.427-.566.701-.939 1.16-1.272 1.454-.305.269-.508.339-.731.339-.223 0-.426-.07-.73-.339-.334-.294-.707-.753-1.273-1.454-1.045-1.296-2.215-2.872-3.12-4.427-.92-1.582-1.506-3.04-1.506-4.13Z" />
    </symbol>
    <symbol id="house" viewBox="0 0 19.2 20.2">
        <path d="M19.1 7.5c0-.1-.1-.2-.1-.4-.5-1.5-1.7-2.4-4.1-4.3C12.5 1 11.3.1 9.8 0h-.4C7.9.1 6.7 1 4.3 2.9 2 4.7.8 5.7.3 7.2c0 .1-.1.2-.1.4-.4 1.5.1 3 1 6s1.4 4.5 2.5 5.5c.1.1.2.2.3.2.6.4 1.2.7 2.2.8.9.1 2 .1 3.5.1s2.6 0 3.5-.1c.9-.1 1.6-.4 2.2-.8.1-.1.2-.2.3-.2 1.2-1 1.6-2.5 2.5-5.5.8-3 1.3-4.6.9-6.1zm-6.7 11.4H6.8v-2.8c0-1.7 1.3-3.1 2.8-3.1 1.6 0 2.8 1.4 2.8 3.1v2.8zm4.5-5.7c-.8 2.8-1.3 4.2-2.2 4.9l-.2.2c-.3.2-.6.3-.9.4v-2.6c0-2.4-1.8-4.3-4-4.3s-4 1.9-4 4.3v2.6c-.4-.1-.7-.2-.9-.4-.1-.1-.2-.1-.2-.2-.9-.8-1.3-2.2-2.1-4.9C1.4 10.4 1 9 1.3 7.8c0-.1.1-.2.1-.3.4-1.2 1.5-2 3.7-3.7 2.2-1.7 3.3-2.6 4.4-2.6h.3c1.1 0 2.2.9 4.4 2.6 2.2 1.7 3.3 2.6 3.7 3.7 0 .1.1.2.1.3.2 1.2-.2 2.6-1.1 5.4z" />
    </symbol>
    <symbol id="likeUp" viewBox="0 0 17.2 17.2">
        <path d="M11.6 17.2H8c-.2 0-.4 0-.6-.1l-3.3-.8H2.4c-1.3 0-2.4-1.1-2.4-2.4V8.6c0-1.3 1.1-2.4 2.4-2.4h2.1l2.3-3.4c.3-.4.4-.9.4-1.4C7.2.6 7.8 0 8.6 0c1.4 0 2.5 1.1 2.5 2.4v3.8h3.7c.8 0 1.6.4 2.1 1.1.4.7.5 1.6.1 2.3l-3.2 6.2c-.4.9-1.2 1.4-2.2 1.4zm-6.8-2 2.9.8h3.9c.5 0 .9-.3 1.1-.7l3.2-6.2c.2-.4.2-.8 0-1.1-.2-.4-.6-.6-1-.6H8.7c-.3 0-.6-.3-.6-.6s.3-.6.6-.6h1.2V2.4c0-.6-.5-1.2-1.2-1.2-.2 0-.3.1-.3.2 0 .8-.2 1.5-.7 2.1l-3 4.4v7.3zM2.4 7.4c-.7 0-1.2.6-1.2 1.2v5.3c0 .6.5 1.2 1.2 1.2h1.2V7.7c0-.1 0-.2.1-.3H2.4zM555 246.6h4.3c1.3 0 2.2 1.4 1.6 2.6l-3.2 6.2c-.3.6-.9 1-1.6 1h-3.6c-.1 0-.3 0-.4-.1l-3.4-.8m6.3-8.9v-4.4c0-1-.8-1.8-1.8-1.8h-.1c-.4 0-.8.4-.8.8 0 .6-.2 1.3-.5 1.8l-3.1 4.5v8m6.3-8.9h-1.8m-4.5 8.9h-1.8c-1 0-1.8-.8-1.8-1.8v-5.3c0-1 .8-1.8 1.8-1.8h2.3"/>
    </symbol>
    <symbol  id="likeDown" viewBox="0 0 17.2 17.2">
        <path d="M572.5 251.2h4.3c1.3 0 2.2 1.4 1.6 2.6l-3.2 6.2c-.3.6-.9 1-1.6 1H570c-.1 0-.3 0-.4-.1l-3.4-.8m6.3-8.9v-4.4c0-1-.8-1.8-1.8-1.8h-.1c-.4 0-.8.4-.8.8 0 .6-.2 1.3-.5 1.8l-3.1 4.5v8m6.3-8.9h-1.8m-4.5 8.9h-1.8c-1 0-1.8-.8-1.8-1.8V253c0-1 .8-1.8 1.8-1.8h2.3M8.6 17.2c-1.4 0-2.5-1.1-2.5-2.4V11H2.4c-.8 0-1.6-.4-2.1-1.1-.4-.7-.5-1.6-.1-2.3l3.2-6.2C3.8.5 4.6 0 5.6 0h3.6c.2 0 .4 0 .6.1l3.3.8h1.7c1.3 0 2.4 1.1 2.4 2.4v5.3c0 1.3-1.1 2.4-2.4 2.4h-2.1l-2.3 3.4c-.3.4-.4.9-.4 1.4 0 .8-.6 1.4-1.4 1.4zM7.3 11v3.8c0 .6.5 1.2 1.2 1.2.2 0 .3-.1.3-.2 0-.8.2-1.5.7-2.1l3-4.4V2l-3-.8H5.6c-.5 0-.9.3-1.1.7L1.3 8.1c-.2.4-.2.8 0 1.1.2.4.6.6 1 .6h6.1c.3 0 .6.3.6.6s-.2.6-.5.6H7.3zm6.2-1.2h1.3c.7 0 1.2-.5 1.2-1.2V3.3c0-.6-.5-1.2-1.2-1.2h-1.2v7.4c0 .1 0 .2-.1.3z"/>
    </symbol>
    <symbol id="stats" viewBox="0 0 13 17">
        <path d="M12 17c-.6 0-1-.4-1-1V6.5c0-.6.4-1 1-1s1 .4 1 1V16c0 .6-.4 1-1 1zm-5.5 0c-.6 0-1-.4-1-1V1c0-.6.4-1 1-1s1 .4 1 1v15c0 .6-.4 1-1 1zM1 17c-.6 0-1-.4-1-1V9.5c0-.6.4-1 1-1s1 .4 1 1V16c0 .6-.4 1-1 1z"></path>
    </symbol>
    <symbol id="question" viewBox="0 0 6 12">
        <path d="M0 1.16C.176 1 .368.850667.576.712c.208-.138666.432-.261333.672-.368.24533-.106667.50933-.189333.792-.2480003C2.328.0319999 2.63733 0 2.968 0c.44267 0 .848.0640001 1.216.192.37333.122667.69333.301334.96.536001.272.229333.48267.509329.632.839999.14933.32533.224.69067.224 1.096 0 .40533-.05867.75733-.176 1.056-.11733.29333-.26667.54933-.448.768-.18133.21867-.37867.41067-.592.576-.21333.16-.416.312-.608.456-.18667.13867-.34933.28-.488.424-.13333.13867-.21333.29333-.24.464l-.168 1.2H2.112l-.12-1.32c-.02667-.25067.01333-.46667.12-.648.10667-.18133.248-.352.424-.512.18133-.16.37867-.312.592-.456.21867-.14933.42133-.31467.608-.496s.344-.384.472-.608c.128-.224.192-.49333.192-.808 0-.208-.04-.39467-.12-.56-.08-.17067-.192-.31467-.336-.432-.144-.11733-.312-.208-.504-.272-.192-.064-.4-.096-.624-.096-.31467 0-.58133.03733-.8.112-.21867.07467-.40533.15733-.56.248-.15467.08533-.28267.16533-.384.24-.101333.06933-.186667.104-.256.104-.165333 0-.288-.072-.368-.216L0 1.16Zm1.536 9.496c0-.1547.02667-.2987.08-.432.05867-.1387.136-.25867.232-.36.10133-.10133.21867-.18133.352-.24.13867-.05867.28533-.088.44-.088.15467 0 .29867.02933.432.088.13867.05867.25867.13867.36.24.10133.10133.18133.2213.24.36.05867.1333.088.2773.088.432 0 .16-.02933.3067-.088.44-.05867.1333-.13867.2507-.24.352s-.22133.1787-.36.232c-.13333.0587-.27733.088-.432.088-.15467 0-.30133-.0293-.44-.088-.13333-.0533-.25067-.1307-.352-.232-.096-.1013-.17333-.2187-.232-.352-.05333-.1333-.08-.28-.08-.44Z" />
    </symbol>
    <symbol id="book" viewBox="0 0 23.2 18.1">
        <path d="M20.5 5.5C18.3 3.8 15.3 4 14 4.4c-.3.1-.5.4-.4.7.1.3.4.5.7.4 1.1-.3 3.7-.5 5.5.9.1.1.2.1.4.1s.3-.1.5-.2c.1-.2 0-.6-.2-.8zm0 3.5c-2.2-1.7-5.2-1.5-6.5-1.1-.3.1-.5.4-.4.7 0 .4.4.5.7.4 1.1-.3 3.7-.5 5.5.9.1.1.2.1.4.1s.3-.1.5-.2c.1-.2 0-.6-.2-.8zm0 3.5c-2.2-1.7-5.2-1.5-6.5-1.1-.3.1-.5.4-.4.7.1.3.4.5.7.4 1.1-.3 3.7-.5 5.5.9.1.1.2.1.4.1s.3-.1.5-.2c.1-.2 0-.6-.2-.8zm-6.2-7c1.1-.3 3.7-.5 5.5.9.1.1.2.1.4.1s.3-.1.5-.2c.2-.3.2-.6-.1-.9-2.2-1.7-5.2-1.5-6.5-1.1-.3.1-.5.4-.4.7-.1.5.3.6.6.5zm-.4 2.4c-.3.1-.5.4-.4.7.1.4.5.5.8.4 1.1-.3 3.7-.5 5.5.9.1.1.2.1.4.1s.3-.1.5-.2c.2-.3.2-.6-.1-.9-2.3-1.6-5.4-1.4-6.7-1zm0 3.5c-.3.1-.5.4-.4.7.1.3.4.5.7.4 1.1-.3 3.7-.5 5.5.9.1.1.2.1.4.1s.3-.1.5-.2c.2-.3.2-.6-.1-.9-2.2-1.6-5.3-1.4-6.6-1zm.4-5.9c1.1-.3 3.7-.5 5.5.9.1.1.2.1.4.1s.3-.1.5-.2c.2-.3.2-.6-.1-.9-2.2-1.7-5.2-1.5-6.5-1.1-.3.1-.5.4-.4.7-.1.5.3.6.6.5zm-.4 2.4c-.3.1-.5.4-.4.7.1.4.5.5.8.4 1.1-.3 3.7-.5 5.5.9.1.1.2.1.4.1s.3-.1.5-.2c.2-.3.2-.6-.1-.9-2.3-1.6-5.4-1.4-6.7-1zm0 3.5c-.3.1-.5.4-.4.7.1.3.4.5.7.4 1.1-.3 3.7-.5 5.5.9.1.1.2.1.4.1s.3-.1.5-.2c.2-.3.2-.6-.1-.9-2.2-1.6-5.3-1.4-6.6-1zm-2.4 6.7h.1-.1zM9.3 4.4C8 4 4.9 3.8 2.7 5.5c-.2.2-.3.6-.1.8.1.1.3.2.5.2.1 0 .3 0 .4-.1C5.3 5 7.8 5.2 8.9 5.5c.3.1.7-.1.8-.4.1-.3-.1-.6-.4-.7zm0 3.5C8 7.5 4.9 7.3 2.7 9c-.2.2-.3.6-.1.8.1.1.3.2.5.2.1 0 .3 0 .4-.1C5.3 8.5 7.8 8.7 8.9 9c.3.1.7 0 .8-.4.1-.3-.1-.6-.4-.7zm0 3.5c-1.3-.4-4.4-.6-6.6 1.1-.2.2-.3.6-.1.9.1.1.3.2.5.2.1 0 .3 0 .4-.1 1.8-1.4 4.4-1.2 5.5-.9.3.1.7-.1.8-.4 0-.4-.2-.7-.5-.8zM3.1 6.6c.1 0 .3 0 .4-.1 1.8-1.5 4.3-1.3 5.4-1 .3.1.7-.1.8-.4.1-.3-.1-.7-.4-.7C8 4 4.9 3.8 2.7 5.5c-.2.2-.3.6-.1.8.2.2.3.3.5.3zm6.2 1.3C8 7.5 4.9 7.3 2.7 9c-.2.2-.3.6-.1.8.1.1.3.2.5.2.1 0 .3 0 .4-.1C5.3 8.5 7.8 8.7 8.9 9c.3.1.7 0 .8-.4.1-.3-.1-.6-.4-.7zm0 3.5c-1.3-.4-4.4-.6-6.6 1.1-.2.2-.3.6-.1.9.1.1.3.2.5.2.1 0 .3 0 .4-.1 1.8-1.4 4.4-1.2 5.5-.9.3.1.7-.1.8-.4 0-.4-.2-.7-.5-.8zm2.4 6.7c.1 0 .1 0 0 0h-.1.1zM9.3 4.4C8 4 4.9 3.8 2.7 5.5c-.2.2-.3.6-.1.8.1.1.3.2.5.2.1 0 .3 0 .4-.1C5.3 5 7.8 5.2 8.9 5.5c.3.1.7-.1.8-.4.1-.3-.1-.6-.4-.7zm0 3.5C8 7.5 4.9 7.3 2.7 9c-.2.2-.3.6-.1.8.1.1.3.2.5.2.1 0 .3 0 .4-.1C5.3 8.5 7.8 8.7 8.9 9c.3.1.7 0 .8-.4.1-.3-.1-.6-.4-.7zm0 3.5c-1.3-.4-4.4-.6-6.6 1.1-.2.2-.3.6-.1.9.1.1.3.2.5.2.1 0 .3 0 .4-.1 1.8-1.4 4.4-1.2 5.5-.9.3.1.7-.1.8-.4 0-.4-.2-.7-.5-.8z"/><path d="M22.9 1.5c-.2-.1-.4-.1-.6-.1-.8.3-2-.1-3.4-.5-2.3-.7-5.1-1.6-7.4.3C9.2-.7 6.4.2 4.1.9c-1.3.4-2.5.8-3.3.5-.2-.1-.4 0-.5.1-.2.1-.3.3-.3.5v15.5c0 .2.1.4.3.5.2.1.4.1.6 0 7-3.1 9.7-1.2 10.2-.3 0 0 0 .1.1.1l.1.1c.1.1.2.1.2.1h.4c.1 0 .2-.1.2-.1l.1-.1s0-.1.1-.1c.5-1 3.3-2.8 10.2.3.2.1.4.1.6 0 .2-.1.3-.3.3-.5V2c-.2-.2-.3-.4-.5-.5zM1.2 16.6V2.7c1 .1 2.2-.3 3.3-.7 2.3-.7 4.6-1.5 6.5.2V16c-1.6-1.1-4.7-1.5-9.8.6zm20.8 0c-2.6-1.1-4.7-1.5-6.3-1.5-1.6 0-2.7.4-3.5.9V2.2c1.9-1.7 4.2-.9 6.5-.2 1.2.4 2.3.8 3.3.7v13.9z"/>
    </symbol>
    <symbol id="personCard" viewBox="0 0 22.2 18.2">
        <path d="M5.6 12.5H3.1c-.3 0-.6.3-.6.6s.3.6.6.6h2.5c.3 0 .6-.3.6-.6s-.3-.6-.6-.6zm0-3.5H3.1c-.3 0-.6.3-.6.6s.3.6.6.6h2.5c.3 0 .6-.3.6-.6S5.9 9 5.6 9zm2.5-3.5h-5c-.3 0-.6.3-.6.6s.3.6.6.6h5c.3 0 .6-.3.6-.6s-.3-.6-.6-.6z"/><path d="M18.9 9c-.3 0-.7.2-.9.4-.8 1-2.1 1.6-3.4 1.6-1.3 0-2.5-.6-3.4-1.6-.2-.2-.5-.4-.9-.4C8.5 9 7 10.5 7 12.3v3.8c0 .3.1.6.2.9H1.6c-.2 0-.4-.2-.4-.4v-13c0-.2.2-.4.4-.4h8.6c-.1.4-.2.9-.2 1.4 0 2.5 2.1 4.6 4.6 4.6 2.5 0 4.6-2.1 4.6-4.6 0-2.5-2.1-4.6-4.6-4.6-1.6 0-3 .8-3.8 2H1.6C.7 2 0 2.7 0 3.6v13c0 .9.7 1.6 1.6 1.6h18.5c1.2 0 2.1-.9 2.1-2.1v-3.8c0-1.8-1.5-3.3-3.3-3.3zm-4.3-7.8c1.9 0 3.4 1.5 3.4 3.4S16.5 8 14.6 8s-3.4-1.5-3.4-3.4 1.5-3.4 3.4-3.4zM21 16.1c0 .5-.4.9-.9.9h-11c-.5 0-.9-.4-.9-.9v-3.8c0-1.2.9-2.1 2.1-2.1 1.1 1.3 2.6 2 4.3 2 1.7 0 3.2-.7 4.3-2 1.2 0 2.1.9 2.1 2.1v3.8z"/>
    </symbol>
    <symbol id="stat" viewBox="0 0 20.7 22.1">
        <path d="M9.7 22.1c-1.5 0-2.9-.3-4.2-1-1.3-.7-2.4-1.6-3.3-2.8l-.4-.5 7.9-5.5 8.4 4.6-.3.5c-.7 1.3-1.8 2.3-3 3.1-1.4.9-3 1.4-4.6 1.5-.1.1-.3.1-.5.1zM6 20c1.3.7 2.7.9 4.1.9 1.4-.1 2.8-.6 4-1.3.9-.6 1.7-1.3 2.3-2.2l-6.7-3.6-6.2 4.4c.7.7 1.6 1.4 2.5 1.8zm13.5-4.1-9.6-5.1L12.2 0l.6.2c1.4.4 2.7 1.1 3.8 2 1.3 1 2.3 2.4 3 3.9.7 1.5 1.1 3.2 1 4.9 0 1.5-.3 2.9-.9 4.3l-.2.6zm-8.2-5.7 7.6 4c.4-1 .6-2.1.6-3.2 0-1.5-.3-3-.9-4.4-.7-1.4-1.6-2.6-2.7-3.5-.8-.7-1.8-1.2-2.8-1.6l-1.8 8.7zm-9.9 5.6-.3-.6C.4 14 0 12.6 0 11.1c0-1.7.5-3.3 1.4-4.8.9-1.4 2.1-2.5 3.6-3.1 1.3-.6 2.7-.8 4.1-.6l.6.1L8.3 11l-6.9 4.8zM5.5 4.3C4.2 4.8 3.1 5.8 2.4 7c-.8 1.2-1.2 2.6-1.2 4.1 0 1 .2 2.1.6 3l5.3-3.8 1.2-6.6c-.9 0-1.9.2-2.8.6z"/>
    </symbol>
    <symbol id="stars" viewBox="0 0 24.3 21">
        <path d="M8.1 21c-.3 0-.7-.1-.9-.3l-1.3-.9c-.1-.1-.3-.1-.5 0l-1.3.9c-.6.4-1.3.4-1.9 0-.6-.4-.8-1.1-.6-1.8l.5-1.5c.1-.2 0-.3-.1-.5L.7 16c-.6-.4-.8-1.1-.6-1.8.2-.7.8-1.1 1.5-1.1h1.6c.2 0 .3-.1.4-.3l.5-1.5c.2-.7.8-1.1 1.5-1.1s1.3.4 1.5 1.1l.5 1.5c.1.2.2.3.4.3h1.6c.7 0 1.3.4 1.5 1.1.2.7 0 1.4-.6 1.8l-1.3.9c-.1.1-.2.3-.1.5l.5 1.5c.2.7 0 1.4-.6 1.8-.3.2-.6.3-.9.3zm-2.5-2.6c.3 0 .7.1.9.3l1.3.9c.2.2.4 0 .5 0 .1-.1.2-.2.1-.4L8 17.7c-.2-.7 0-1.4.6-1.8l1.2-.9c.2-.2.2-.4.1-.4s-.1-.3-.4-.3H8c-.7 0-1.3-.4-1.5-1.1L6 11.7c-.1-.2-.3-.3-.4-.3-.1 0-.3 0-.4.3l-.5 1.5c-.2.7-.8 1.1-1.5 1.1H1.6c-.3 0-.4.2-.4.3s0 .3.2.4l1.3.9c.6.4.8 1.1.6 1.8l-.5 1.5c-.1.2.1.4.1.4.1.1.3.2.5 0l1.3-.9c.3-.2.6-.3.9-.3zM21.2 21c-.3 0-.7-.1-.9-.3l-1.3-.9c-.1-.1-.3-.1-.5 0l-1.3.9c-.6.4-1.3.4-1.9 0-.6-.4-.8-1.1-.6-1.8l.5-1.5c.1-.2 0-.3-.1-.5l-1.4-.9c-.6-.4-.8-1.1-.6-1.8.2-.7.8-1.1 1.5-1.1h1.6c.2 0 .3-.1.4-.3l.5-1.5c.2-.7.8-1.1 1.5-1.1s1.3.4 1.5 1.1l.5 1.5c.1.2.2.3.4.3h1.6c.7 0 1.3.4 1.5 1.1.2.7 0 1.4-.6 1.8l-1.3.9c-.1.1-.2.3-.1.5l.5 1.5c.2.7 0 1.4-.6 1.8-.2.2-.5.3-.8.3zm-2.5-2.6c.3 0 .7.1.9.3l1.3.9c.2.2.4 0 .5 0 .1-.1.2-.2.1-.4l-.5-1.5c-.2-.7 0-1.4.6-1.8l1.3-.9c.2-.2.2-.4.1-.4s-.1-.3-.4-.3H21c-.7 0-1.3-.4-1.5-1.1l-.5-1.5c-.1-.2-.3-.3-.4-.3s-.3 0-.4.3l-.5 1.5c-.2.7-.8 1.1-1.5 1.1h-1.6c-.3 0-.4.2-.4.3s-.1.3.1.4l1.3.9c.6.4.8 1.1.6 1.8l-.5 1.5c-.1.2.1.4.1.4.1.1.3.2.5 0l1.3-.9c.4-.2.7-.3 1.1-.3zM9.7 10.8c-.3 0-.7-.1-.9-.3-.6-.4-.8-1.1-.6-1.8l.5-1.5c.1-.2 0-.3-.1-.5l-1.4-.9c-.6-.4-.8-1.1-.6-1.8.2-.7.8-1.1 1.5-1.1h1.6c.2 0 .3-.1.4-.3l.5-1.5c.2-.7.8-1.1 1.5-1.1s1.3.4 1.5 1.1l.5 1.5c.1.2.2.3.4.3h1.6c.7 0 1.3.4 1.5 1.1s0 1.4-.6 1.8l-1.3.9c-.1.1-.2.3-.1.4l.5 1.5c.2.7 0 1.4-.6 1.8-.6.4-1.3.4-1.9 0l-1.3-.9c-.1-.1-.3-.1-.5 0l-1.3.9c-.2.3-.5.4-.8.4zM8.1 4.1c-.3 0-.4.2-.4.3s0 .3.2.4l1.3.9c.6.5.8 1.2.6 1.8l-.5 1.6c-.1.2.1.4.1.4.1.1.3.2.5 0l1.3-.9c.6-.4 1.3-.4 1.9 0l1.3.9c.2.2.4 0 .5 0s.2-.2.1-.4l-.5-1.5c-.2-.7 0-1.4.6-1.8l1.3-.9c.2-.2.2-.4.1-.4 0-.1-.1-.3-.4-.3h-1.6c-.7 0-1.3-.4-1.5-1.1l-.5-1.5c-.1-.2-.3-.3-.4-.3-.1 0-.3 0-.4.3L11.3 3c-.3.7-.9 1.1-1.6 1.1H8.1z"/>
    </symbol>
    <symbol id="cards-alt" viewBox="0 0 23.1 18.1">
        <path d="M21.6 1.3 5.1 0c-.8-.1-1.6.6-1.7 1.4l-.3 3H1.6C.7 4.4 0 5.1 0 6v10.5c0 .9.7 1.6 1.6 1.6h16.5c.9 0 1.6-.7 1.6-1.6v-1.9h1c.8 0 1.5-.6 1.6-1.5L23.1 3c.1-.8-.6-1.6-1.5-1.7zm-3.1 15.2c0 .2-.2.4-.4.4H1.6c-.2 0-.4-.2-.4-.4v-5.4h17.3v5.4zm0-6.6H1.2V8.1h17.3v1.8zm0-3H1.2V6c0-.2.2-.4.4-.4h16.5c.2 0 .4.2.4.4v.9zm2.6 6.2c0 .2-.2.4-.4.4h-1V6c0-.9-.7-1.6-1.6-1.6H4.3l.3-2.9c0-.2.2-.4.4-.3l16.5 1.3c.2 0 .4.2.4.4l-.8 10.2z"/><path d="M16.6 11.9h-3.5c-.6 0-1.1.5-1.1 1.1v2c0 .6.5 1.1 1.1 1.1h3.5c.6 0 1.1-.5 1.1-1.1v-2c0-.6-.5-1.1-1.1-1.1zm-3.4 1.2h3.3v1.8h-3.3v-1.8z"/>
    </symbol>
    <symbol id="graph" viewBox="0 0 20.5 22.2">
        <path d="M19.9 22.2h-2.8c-.3 0-.6-.3-.6-.6V8.7c0-.3.3-.6.6-.6h2.8c.3 0 .6.3.6.6v12.9c0 .3-.3.6-.6.6zM17.7 21h1.6V9.3h-1.6V21zm-2.9 1.2H12c-.3 0-.6-.3-.6-.6v-9.5c0-.3.3-.6.6-.6h2.8c.3 0 .6.3.6.6v9.5c0 .3-.3.6-.6.6zM12.6 21h1.6v-8.3h-1.6V21zm-3 1.2H6.8c-.3 0-.6-.3-.6-.6v-6.4c0-.3.3-.6.6-.6h2.8c.3 0 .6.3.6.6v6.4c0 .3-.3.6-.6.6zM7.4 21H9v-5.2H7.4V21zm-2.8 1.2H1.8c-.3 0-.6-.3-.6-.6V18c0-.3.3-.6.6-.6h2.8c.3 0 .6.3.6.6v3.6c0 .3-.3.6-.6.6zM2.4 21H4v-2.4H2.4V21zM.6 15.5c-.2 0-.3-.1-.4-.2-.2-.2-.2-.6 0-.8L10 4.6c.2-.2.6-.2.8 0l1.8 1.8 5.2-5.2h-2.1c-.3 0-.6-.3-.6-.6s.3-.6.6-.6H19.5c.1 0 .1.1.2.1 0 .1.1.1.1.2V4.1c0 .3-.3.6-.6.6s-.6-.3-.6-.6V2l-5.7 5.7c-.2.2-.6.2-.8 0l-1.8-1.8L1 15.3c-.1.1-.2.2-.4.2z"/>
    </symbol>
    <symbol id="case" viewBox="0 0 23.2 20.7">
        <path d="M21.6 4h-3.9V1.6C17.7.7 17 0 16.1 0h-9c-.9 0-1.6.7-1.6 1.6V4H1.6C.7 4 0 4.7 0 5.6v8c0 .3.3.6.6.6H1v4.9c0 .9.7 1.6 1.6 1.6h18c.9 0 1.6-.7 1.6-1.6v-4.9h.4c.3 0 .6-.3.6-.6v-8c0-.9-.7-1.6-1.6-1.6zM7.1 1.2h9c.2 0 .4.2.4.4V4H6.7V1.6c0-.2.2-.4.4-.4zM21 19.1c0 .2-.2.4-.4.4h-18c-.2 0-.4-.2-.4-.4v-4.9H4v.9c0 .3.3.6.6.6h2.5c.3 0 .6-.3.6-.6v-.9h7.8v.9c0 .3.3.6.6.6h2.5c.3 0 .6-.3.6-.6v-.9H21v4.9zM5.2 14.5v-1.9c0-.2.2-.4.4-.4h.5c.2 0 .4.2.4.4v1.9H5.2zm11.5 0v-1.9c0-.2.2-.4.4-.4h.5c.2 0 .4.2.4.4v1.9h-1.3zM22 13h-2.8v-.4c0-.9-.7-1.6-1.6-1.6h-.5c-.9 0-1.6.7-1.6 1.6v.4H7.7v-.4c0-.9-.7-1.6-1.6-1.6h-.5c-.9 0-1.6.7-1.6 1.6v.4H1.2V5.6c0-.2.2-.4.4-.4h20c.2 0 .4.2.4.4V13z"/>
    </symbol>
    <symbol id="shield" viewBox="0 0 20.8 25.2">
        <path d="M16.8 8.5c0-.3-.1-.6-.1-.8V7.4c0-.2-.2-.4-.5-.5H16c-.2 0-.4-.1-.6-.2-.5-.2-1-.4-1.3-.6-.3-.2-.6-.6-.8-1.1-.1-.2-.2-.4-.3-.5 0-.1-.1-.1-.1-.1-.2-.3-.4-.4-.6-.4H8.6c-.3 0-.5.1-.6.3 0 0 0 .1-.1.1-.1.3-.2.4-.3.6-.2.4-.5.8-.8 1.1-.3.2-.8.4-1.3.6-.2.1-.4.1-.6.2h-.2c-.2.1-.4.3-.5.5v.1s0 .1-.1.2c0 .2-.1.5-.1.8 0 .7-.1 1.7-.2 2.7 0 1.1 0 2.2.2 3.3.2 1.1.6 2.2 1.2 3 .1.1.2.2.2.3.5.7.9 1.1 1.7 1.7.5.4 1.3.8 1.9 1.1.4.2.7.4.9.4.1 0 .2.1.2.1h.1c.1.1.3.1.4 0h.1s.1 0 .2-.1c.2-.1.5-.2.8-.3.6-.3 1.3-.7 1.9-1.1.8-.6 1.2-1.1 1.7-1.7.1-.1.1-.2.2-.3.7-.8 1-1.9 1.3-3 .2-1.1.2-2.3.2-3.3 0-1.1-.1-2.1-.2-2.8zm-1.2 5.9c-.2 1-.5 1.9-1 2.5-.1.1-.2.2-.2.3-.5.6-.8 1-1.5 1.5-.4.3-1.1.7-1.7 1-.3.1-.5.2-.7.3h-.2c-.2-.1-.4-.2-.7-.3-.6-.3-1.2-.6-1.7-1-.7-.5-1-.9-1.5-1.5-.1-.1-.1-.2-.2-.3-.5-.6-.8-1.5-1-2.5-.2-1-.2-2.1-.2-3.1s.1-1.9.2-2.6c0-.3.1-.5.1-.7.1 0 .3-.1.5-.2.6-.1 1.3-.4 1.7-.8.5-.3.9-.9 1.1-1.3.1-.2.2-.3.3-.5h3c.1.1.2.3.3.5.3.4.7 1 1.1 1.3.5.4 1.1.6 1.6.8.2.1.4.2.6.2 0 .2.1.4.1.7.1.7.2 1.6.2 2.6s0 2.1-.2 3.1z"/><path d="M20.8 10.6c0-1.6-.2-3-.4-4-.1-.5-.1-1-.2-1.2 0-.1-.1-.3-.1-.3V5c0-.2-.2-.4-.5-.5h-.1c-.1 0-.2 0-.3-.1-.2-.1-.6-.1-1-.3-.8-.2-1.6-.6-2.2-1-.5-.4-1-1-1.4-1.6-.2-.3-.4-.6-.5-.8-.1-.1-.1-.2-.1-.2V.4c-.1-.3-.3-.4-.5-.4H7.4c-.2 0-.4.1-.6.3v.1c0 .1-.1.1-.1.2-.2.2-.3.5-.5.8-.4.6-1 1.3-1.5 1.6-.5.4-1.4.8-2.2 1-.4.1-.7.2-1 .3-.1 0-.2 0-.3.1h-.1c-.2 0-.4.2-.5.5V5c0 .1 0 .2-.1.3 0 .3 0 .7-.1 1.2-.2 1-.3 2.5-.4 4 0 1.6 0 3.3.4 4.9.3 1.6.9 3.2 2 4.4v.1c1 1.2 1.7 2 3.1 2.9.9.6 2 1.2 3 1.6.5.3.9.5 1.2.6.2.1.3.1.4.1h.6c.1 0 .2-.1.4-.1.3-.1.7-.3 1.2-.5 1-.4 2.1-1 3-1.6 1.4-1 2-1.7 3.1-2.9l.1-.1c1-1.2 1.6-2.8 2-4.4.3-1.6.4-3.3.3-4.9zm-1.5 4.7c-.3 1.5-.9 2.9-1.7 3.8-1 1.2-1.6 1.9-2.9 2.8-.8.5-1.8 1.1-2.8 1.5-.5.2-.9.4-1.2.5-.1 0-.2.1-.3.1-.1 0-.2-.1-.3-.1-.3-.1-.7-.3-1.2-.5-.9-.4-2-.9-2.8-1.5-1.3-.9-1.8-1.6-2.9-2.8-.9-1-1.4-2.3-1.7-3.8-.3-1.5-.4-3.1-.3-4.7 0-1.5.2-2.9.4-3.9.1-.5.2-.9.2-1.2v-.1h.1c.3-.1.6-.2 1-.3.8-.2 1.8-.6 2.5-1.1.7-.5 1.3-1.3 1.7-1.9.2-.3.4-.6.5-.8H13c.1.2.3.5.5.8.4.6 1 1.4 1.7 1.9s1.8.9 2.5 1.2c.4.1.8.2 1 .3h.1v.1c.1.3.1.7.2 1.2.2 1 .3 2.4.4 3.9.3 1.4.2 3.1-.1 4.6z"/><path d="M9.5 15.4c-.2 0-.4-.1-.5-.2l-2.1-2.7c-.2-.3-.2-.6.1-.8.3-.2.6-.2.8.1l1.6 2 3-4c.2-.3.6-.3.8-.1.3.2.3.6.1.8L10 15.1c-.1.2-.3.3-.5.3z"/>
    </symbol>
    <symbol id="home" viewBox="0 0 24.4 24.2">
        <path d="M2.8 15.6.3 17.1c-.3.2-.4.5-.2.8l3 5.5c.1.1.2.2.4.3.2 0 .3 0 .5-.1l2.2-1.3c.1 0 .2.1.4.2.4.2 1 .5 1.7.7 1.3.5 3 1 4.5 1 3.4 0 5.3-1.3 7.8-3.1 1.3-1 2.9-2.7 3.6-3.5.5-.6.4-1.4-.1-1.9s-1.2-.5-1.8-.2c-.3.2-.6.4-1 .6V8.4l1.5 1.2c.3.2.6.2.8-.1.2-.3.2-.6-.1-.8l-2.5-2-8-6.5c-.2-.2-.5-.2-.8 0L4.5 6.6l-2.3 2c-.2.3-.3.6-.1.9.3.2.6.3.9.1l1.3-1.1v6.3c-.4.2-.7.4-1 .5l-.5.3zm2.7-8.2 7.1-6 7.4 6v9.4c-.3.1-.7.3-1.1.5-.5.2-1 .4-1.6.6l.9-.7c.5-.4.7-1.2.3-1.7-.4-.6-1.2-.9-1.8-.5l-1 .5v-3.9c0-1.7-1.4-3.1-3.1-3.1s-3.1 1.4-3.1 3.1v3.2c-.4-.3-.9-.7-1.3-.8-.9-.2-1.9 0-2.8.3V7.4zm9 4.2V16l-2 .6c-.6.2-1.2 0-1.7-.5v-4.5c0-1 .8-1.9 1.9-1.9 1 0 1.8.8 1.8 1.9zM3.8 22.3l-2.4-4.4 1.5-.9 2.4 4.4-1.5.9zm19.4-5.5c-.8.9-2.2 2.5-3.4 3.3-2.5 1.8-4.2 2.9-7.2 2.9-1.2 0-2.7-.4-4-.9-.6-.2-1.2-.5-1.6-.7-.2-.1-.3-.2-.5-.2l-2.6-4.8c.3-.2.7-.4 1.2-.6 1-.4 2.1-.7 2.8-.5.2 0 .5.2.8.5.3.3.6.6.9 1 .7.9 1.9 1.4 3.1 1l2.5-.7h.1l1.8-1c.1 0 .2 0 .2.1v.2L13.9 19l-3.8-.5c-.3 0-.6.2-.7.5s.2.6.5.7l4 .5h.3s.1 0 .2-.1c.1 0 .4-.1.6-.2.5-.2 1.2-.4 2-.7.8-.3 1.5-.6 2.2-.8.7-.3 1.2-.5 1.6-.7.8-.5 1.5-.9 1.9-1.2.1-.1.2 0 .3 0 .2.1.2.2.2.3z"/>
    </symbol>
    <symbol id="bag" viewBox="0 0 18.2 24.9">
        <path d="M12.3 7.3c.2-.6.1-1.3-.4-1.7l1.4-2.7c.3-.7.1-1.5-.5-2l-.7-.6c-.6-.4-1.4-.4-1.9 0l-.9.6c-.1.1-.3.1-.4 0L8.1.3c-.6-.4-1.4-.4-1.9 0l-.8.6c-.6.5-.8 1.3-.5 2l1.4 2.7c-.4.4-.6 1.1-.4 1.7-3.3.5-5.9 3.5-5.9 7v9c0 .9.7 1.6 1.6 1.6h15c.9 0 1.6-.7 1.6-1.6v-9c0-3.5-2.6-6.4-5.9-7zM6 2.3c-.1-.1 0-.4.1-.5l.7-.5c.2-.1.3-.1.5 0l.8.6c.6.4 1.4.4 1.9 0l.8-.6c.2-.1.3-.1.5 0l.7.5c.2.1.2.3.1.5l-1.5 2.9H7.5L6 2.3zM11.1 7l-.2.2H7.4L7.1 7c-.1-.2-.1-.5.1-.6H11c.2.1.2.4.1.6zM17 23.3c0 .2-.2.4-.4.4h-15c-.2 0-.4-.2-.4-.4v-9c0-3.3 2.7-5.9 5.9-5.9h4c3.3 0 5.9 2.6 5.9 5.9v9z"/><path d="M11.8 16.7h-.1c-1 0-1.9.8-1.9 1.9 0 1 .8 1.9 1.9 1.9h.1c1 0 1.9-.8 1.9-1.9 0-1.1-.8-1.9-1.9-1.9zm0 2.5h-.1c-.4 0-.7-.3-.7-.7 0-.4.3-.7.7-.7h.1c.4 0 .7.3.7.7 0 .4-.3.7-.7.7zM13.2 13.2l-7.3 7c-.2.2-.6.2-.8 0s-.2-.6 0-.8l7.3-7c.2-.2.6-.2.8 0 .3.2.3.6 0 .8zM6.4 12.2c-1 0-1.9.8-1.9 1.9S5.4 16 6.4 16c1 0 1.9-.8 1.9-1.9s-.8-1.9-1.9-1.9zm0 2.5c-.4 0-.7-.3-.7-.7 0-.3.3-.7.7-.7s.7.3.7.7c.1.4-.2.7-.7.7z"/>
    </symbol>
    <symbol id="share" viewBox="0 0 17.2 12.2">
        <path d="M.6 12.2H.4c-.2-.1-.4-.3-.4-.6C0 9.2.8 5.9 3.1 4 4.6 2.7 6.6 2.1 9 2.4v-.9c0-.6.4-1.1.9-1.3.5-.2 1.2-.1 1.6.2l5.1 4.1c.3.3.5.7.5 1.1 0 .4-.2.8-.5 1.1l-5.1 4.1c-.4.4-1.1.5-1.6.2-.5-.1-.9-.7-.9-1.2V8.3c-.6-.8-1.4-1.2-2.2-1.1-1.9.1-4.3 2.5-5.7 4.7-.1.2-.3.3-.5.3zM6.9 6c1.2 0 2.3.6 3.1 1.8.1.1.1.2.1.4v1.6c0 .1.1.2.2.2.1.1.3 0 .4-.1l5.1-4.1c.2-.1.2-.1.2-.2s0-.1-.1-.2l-5.1-4.1c-.1-.1-.3-.1-.4-.1-.1 0-.2.2-.2.3v1.6c0 .2-.1.3-.2.5-.1.1-.3.1-.5.1-2.3-.4-4.2 0-5.7 1.2-1.3 1.2-2.1 2.9-2.4 4.6C2.7 8 4.6 6.1 6.8 6h.1z"/>
    </symbol>
    <symbol id="phone" viewBox="0 0 22.9 22.9">
        <path d="m22.4 17.7-3.9-3.9c-.6-.6-1.6-.6-2.3 0l-1.6 1.6h-.1c-3-1.5-5.5-4-7-7.1v-.1l1.6-1.6c.6-.6.6-1.6 0-2.2L5.1.5c-.6-.6-1.6-.6-2.3 0l-.9 1c-2.3 2.3-2.6 6-.6 8.6L4.2 14c1.3 1.8 2.9 3.4 4.7 4.7l3.9 2.9c2.6 2 6.3 1.7 8.6-.6l.9-1c.7-.6.7-1.7.1-2.3zm-1.8 2.4c-1.9 1.9-4.9 2.1-7.1.5l-3.9-2.9c-1.7-1.3-3.2-2.8-4.5-4.5L2.3 9.3c-1.6-2.1-1.4-5.1.5-7l1-1c.1-.1.4-.1.6 0l3.9 3.9c.2.2.2.4 0 .6L6.6 7.4c-.4.4-.5 1-.2 1.5 1.6 3.3 4.3 5.9 7.6 7.6.5.2 1.1.1 1.5-.2l1.6-1.6c.2-.2.4-.2.6 0l3.9 3.9c.2.2.2.4 0 .6l-1 .9z"/>
    </symbol>
    <svg id="mail" viewBox="0 0 26.3 19.5">
        <path d="M23.7 0H2.6C1.2 0 0 1.2 0 2.6v14.3c0 1.4 1.2 2.6 2.6 2.6h21.1c1.4 0 2.6-1.2 2.6-2.6V2.6c0-1.4-1.1-2.6-2.6-2.6zM1.2 2.6c0-.8.6-1.4 1.4-1.4h21.1c.8 0 1.4.6 1.4 1.4v2.2L13.8 10c-.4.2-.8.2-1.2 0L1.2 4.8V2.6zm23.9 14.3c0 .8-.6 1.4-1.4 1.4H2.6c-.8 0-1.4-.6-1.4-1.4V6.1l10.9 5c.3.1.7.2 1.1.2s.7-.1 1.1-.2l10.9-5v10.8z"/>
    </svg>
    <svg id="map" viewBox="0 0 25.2 27.8">
        <path d="M12.6 0C7.2 0 2.8 4.4 2.8 9.8c0 3.6 1.9 6.5 3.9 8.5 2.1 2 4.3 3.3 5.3 3.8.4.2.9.2 1.3 0 .9-.5 3.2-1.7 5.3-3.8 2.1-2 4-4.9 4-8.5C22.4 4.4 18 0 12.6 0zm5.2 17.6c-2 1.9-4.1 3.1-5 3.6-.1.1-.2.1-.4 0-.9-.4-3.1-1.7-5-3.6-2-1.9-3.6-4.5-3.6-7.8C3.8 5 7.7 1 12.6 1s8.8 4 8.8 8.8c0 3.3-1.7 5.9-3.6 7.8z"/><path d="M12.6 5.3c-2.5 0-4.5 2-4.5 4.5s2 4.5 4.5 4.5 4.5-2 4.5-4.5-2-4.5-4.5-4.5zm0 8c-1.9 0-3.5-1.6-3.5-3.5s1.6-3.5 3.5-3.5 3.5 1.6 3.5 3.5c0 2-1.6 3.5-3.5 3.5zM12.6 27.8c-2.1 0-4.3-.2-6.1-.5-1.9-.4-3.5-.9-4.6-1.5-1.6-1-1.9-2-1.9-2.6s.3-1.6 1.9-2.5c.3-.2.7-.1.8.2.2.3.1.7-.2.8-.8.5-1.3 1-1.3 1.5s.5 1 1.3 1.5c1 .6 2.4 1.1 4.2 1.4 3.6.7 8.2.7 11.8 0 1.8-.3 3.2-.8 4.2-1.4.8-.5 1.3-1 1.3-1.5s-.5-1-1.3-1.5c-.3-.2-.4-.5-.2-.8.2-.3.5-.4.8-.2 1.6.9 1.9 1.9 1.9 2.5s-.3 1.6-1.9 2.5c-1.1.6-2.7 1.2-4.6 1.5-1.8.4-4 .6-6.1.6z"/>
    </svg>
</svg>