<svg width="32" height="25" viewBox="0 0 32 25" fill="none" xmlns="http://www.w3.org/2000/svg">
<path d="M8.58537 24.381C3.70732 24.381 0 20.7746 0 14.2222C0 8.99048 2.78049 4.52064 7.80488 1.93016C10.2927 0.660318 12.9756 0 15.7073 0L16.6829 1.42222C14.1951 1.42222 9.12195 2.89524 6.73171 5.79048C5.5122 7.26349 4.87805 8.48254 4.87805 9.44762C5.41463 8.73651 7.46342 8.02539 9.56098 8.02539C12.1463 8.02539 14.1463 9.14286 15.5122 11.3778C16.9756 4.62222 23.4146 0 30.9268 0L31.9024 1.42222C29.4146 1.42222 24.3415 2.89524 21.9512 5.79048C20.7317 7.26349 20.0976 8.48254 20.0976 9.44762C20.6341 8.73651 22.6829 8.02539 24.7805 8.02539C29.0244 8.02539 32 11.581 32 15.9492C32 20.8254 28.7805 24.381 23.8049 24.381C20.3902 24.381 17.5122 22.5016 16.1951 19.4032C14.9756 22.5016 12.2927 24.381 8.58537 24.381Z" fill="#14B8AD"/>
</svg>
