<svg width="18" height="18" viewBox="0 0 18 18" fill="none" xmlns="http://www.w3.org/2000/svg">
<path d="M7.09372 10.7778H2.80347C1.46453 10.7778 0.593685 9.387 1.19248 8.20495L4.34447 1.98273C4.64957 1.38045 5.27324 1 5.95546 1H9.5737C9.72097 1 9.86768 1.01783 10.0105 1.05308L13.3977 1.88889M7.09372 10.7778V15.2222C7.09372 16.2041 7.90012 17 8.89486 17H8.98084C9.43073 17 9.79543 16.64 9.79543 16.196C9.79543 15.561 9.98585 14.9403 10.3427 14.412L13.3977 9.88889V1.88889M7.09372 10.7778H8.89486M13.3977 1.88889H15.1989C16.1936 1.88889 17 2.68483 17 3.66667V9C17 9.98184 16.1936 10.7778 15.1989 10.7778H12.9474" stroke="#9CA3AF" stroke-width="1.2" stroke-linecap="round" stroke-linejoin="round"/>
</svg>
